<?xml version="1.0" encoding="utf-8"?><svg viewBox="0 0 30 30" xmlns="http://www.w3.org/2000/svg" xmlns:xlink="http://www.w3.org/1999/xlink"><style>:root>svg{display:none}:root>svg:target{display:block}</style><svg viewBox="0 0 30 30" id="icons8-apple-music-lyrics" xmlns="http://www.w3.org/2000/svg"><path d="M5 3a2 2 0 00-2 2v15a2 2 0 002 2h4v4a1 1 0 001 1 .982.982 0 00.803-.436l.015.006L14.25 22H25a2 2 0 002-2V5a2 2 0 00-2-2H5zm6.5 6a2.5 2.5 0 012.5 2.5v.5c0 2.214-1.1 4.27-2.941 5.496l-.504.336-1.11-1.664.504-.336a4.595 4.595 0 001.59-1.836c-.014 0-.026.004-.039.004a2.5 2.5 0 110-5zm7 0a2.5 2.5 0 012.5 2.5v.5c0 2.214-1.1 4.27-2.941 5.496l-.504.336-1.11-1.664.504-.336a4.595 4.595 0 001.59-1.836c-.014 0-.026.004-.039.004a2.5 2.5 0 110-5z"/></svg><svg viewBox="0 0 30 30" id="icons8-ios-10" xmlns="http://www.w3.org/2000/svg"><path d="M6 4a2 2 0 00-2 2v18a2 2 0 002 2h18a2 2 0 002-2V6a2 2 0 00-2-2H6zm12.277 5.203c3.024 0 3.938 2.797 3.938 5.719 0 2.83-.824 5.875-3.986 5.875-3.1 0-3.979-2.867-3.979-5.799 0-2.906.96-5.795 4.027-5.795zm-7.77.158h1.241v11.23h-1.701v-9.208c-.547.37-1.653.784-2.262.883V10.94c.9-.224 1.98-.855 2.723-1.58zM18.29 10.6c-1.856 0-2.281 1.942-2.281 4.394 0 2.114.342 4.406 2.236 4.406 1.9 0 2.219-2.173 2.219-4.47-.001-2.157-.35-4.33-2.174-4.33z"/></svg></svg>